<svg width="15" height="29" viewBox="0 0 15 29" fill="none" xmlns="http://www.w3.org/2000/svg">
<path d="M0.286838 27.7565C0.103642 27.5731 0.000742912 27.3245 0.000742912 27.0652C0.000742912 26.806 0.103642 26.5573 0.286838 26.3739L12.6374 14.0218L0.286838 1.66958C0.114038 1.48413 0.0199652 1.23885 0.024437 0.985417C0.0289087 0.731981 0.131576 0.490174 0.31081 0.31094C0.490045 0.131706 0.731852 0.0290381 0.985288 0.0245665C1.23872 0.0200949 1.484 0.114168 1.66945 0.286968L14.7129 13.3304C14.8961 13.5139 14.999 13.7625 14.999 14.0218C14.999 14.281 14.8961 14.5296 14.7129 14.7131L1.66945 27.7565C1.48602 27.9397 1.23738 28.0426 0.978143 28.0426C0.718903 28.0426 0.470263 27.9397 0.286838 27.7565Z" fill="url(#paint0_linear_1421_116)"/>
<defs>
<linearGradient id="paint0_linear_1421_116" x1="-2.50012" y1="14" x2="14.9999" y2="14" gradientUnits="userSpaceOnUse">
<stop stop-color="#01B0D3"/>
<stop offset="1" stop-color="#D794FA"/>
</linearGradient>
</defs>
</svg>
