<svg width="15" height="29" viewBox="0 0 15 29" fill="none" xmlns="http://www.w3.org/2000/svg">
<g clip-path="url(#clip0_1421_103)">
<path d="M14.7132 0.286922C14.8964 0.470346 14.9993 0.718988 14.9993 0.978228C14.9993 1.23747 14.8964 1.48611 14.7132 1.66953L2.36262 14.0217L14.7132 26.3739C14.886 26.5593 14.98 26.8046 14.9756 27.058C14.9711 27.3115 14.8684 27.5533 14.6892 27.7325C14.51 27.9118 14.2681 28.0144 14.0147 28.0189C13.7613 28.0234 13.516 27.9293 13.3306 27.7565L0.287073 14.713C0.103876 14.5296 0.000976563 14.2809 0.000976563 14.0217C0.000976563 13.7625 0.103876 13.5138 0.287073 13.3304L13.3306 0.286922C13.514 0.103725 13.7626 0.000827789 14.0219 0.000827789C14.2811 0.000827789 14.5297 0.103725 14.7132 0.286922Z" fill="url(#paint0_linear_1421_103)"/>
</g>
<defs>
<linearGradient id="paint0_linear_1421_103" x1="17.5001" y1="14.0435" x2="0.000120961" y2="14.0435" gradientUnits="userSpaceOnUse">
<stop stop-color="#01B0D3"/>
<stop offset="1" stop-color="#D794FA"/>
</linearGradient>
<clipPath id="clip0_1421_103">
<rect width="28.0435" height="15" fill="white" transform="matrix(0 -1 1 0 0 28.0435)"/>
</clipPath>
</defs>
</svg>
