<svg fill="none" xmlns="http://www.w3.org/2000/svg" viewBox="0.08 0.53 60.77 51.68"><path d="M6.78692 7.29775C6.67229 3.78678 9.23686 0.549194 12.7034 0.549194H48.2242C51.6906 0.549194 54.2552 3.78678 54.1406 7.29775C54.0305 10.6704 54.1735 15.0392 55.2042 18.6014C56.2383 22.1747 57.9822 24.4333 60.8382 24.7235V28.0142C57.9822 28.3045 56.2383 30.563 55.2042 34.1363C54.1735 37.6985 54.0305 42.0673 54.1406 45.4401C54.2552 48.951 51.6906 52.1885 48.2242 52.1885H12.7034C9.23686 52.1885 6.67229 48.951 6.78703 45.4401C6.89703 42.0673 6.75405 37.6985 5.72314 34.1363C4.68915 30.563 2.94107 28.3045 0.0849609 28.0142V24.7235C2.94095 24.4333 4.68915 22.1747 5.72314 18.6014C6.75405 15.0392 6.89703 10.6704 6.78692 7.29775Z" fill="url(#paint0_linear_877_232)"></path><g filter="url(#filter0_d_877_232)"><path d="M31.7789 40.0959C37.3911 40.0959 40.773 37.1649 40.773 32.3304C40.773 28.676 38.36 26.0304 34.7769 25.6116V25.4593C37.4094 25.0025 39.4751 22.395 39.4751 19.4829C39.4751 15.3337 36.404 12.6309 31.7241 12.6309H21.1943V40.0959H31.7789ZM25.2892 16.114H30.737C33.6985 16.114 35.3802 17.5224 35.3802 20.0729C35.3802 22.7947 33.4242 24.3173 29.8778 24.3173H25.2892V16.114ZM25.2892 36.6129V27.5721H30.7003C34.5758 27.5721 36.5867 29.0947 36.5867 32.064C36.5867 35.0331 34.6308 36.6129 30.938 36.6129H25.2892Z" fill="url(#paint1_linear_877_232)"></path><path d="M31.7789 40.0959C37.3911 40.0959 40.773 37.1649 40.773 32.3304C40.773 28.676 38.36 26.0304 34.7769 25.6116V25.4593C37.4094 25.0025 39.4751 22.395 39.4751 19.4829C39.4751 15.3337 36.404 12.6309 31.7241 12.6309H21.1943V40.0959H31.7789ZM25.2892 16.114H30.737C33.6985 16.114 35.3802 17.5224 35.3802 20.0729C35.3802 22.7947 33.4242 24.3173 29.8778 24.3173H25.2892V16.114ZM25.2892 36.6129V27.5721H30.7003C34.5758 27.5721 36.5867 29.0947 36.5867 32.064C36.5867 35.0331 34.6308 36.6129 30.938 36.6129H25.2892Z" stroke="white"></path></g><defs><filter id="filter0_d_877_232" x="4.69434" y="0.130859" width="52.5791" height="60.4651" filterUnits="userSpaceOnUse" color-interpolation-filters="sRGB"><feFlood flood-opacity="0" result="BackgroundImageFix"></feFlood><feColorMatrix in="SourceAlpha" type="matrix" values="0 0 0 0 0 0 0 0 0 0 0 0 0 0 0 0 0 0 127 0" result="hardAlpha"></feColorMatrix><feOffset dy="4"></feOffset><feGaussianBlur stdDeviation="8"></feGaussianBlur><feColorMatrix type="matrix" values="0 0 0 0 0 0 0 0 0 0 0 0 0 0 0 0 0 0 0.15 0"></feColorMatrix><feBlend mode="normal" in2="BackgroundImageFix" result="effect1_dropShadow_877_232"></feBlend><feBlend mode="normal" in="SourceGraphic" in2="effect1_dropShadow_877_232" result="shape"></feBlend></filter><linearGradient id="paint0_linear_877_232" x1="9.11239" y1="1.91587" x2="64.8067" y2="43.3636" gradientUnits="userSpaceOnUse"><stop stop-color="#9013FE"></stop><stop offset="1" stop-color="#6610F2"></stop></linearGradient><linearGradient id="paint1_linear_877_232" x1="23.0462" y1="14.4386" x2="36.0822" y2="35.1076" gradientUnits="userSpaceOnUse"><stop stop-color="white"></stop><stop offset="1" stop-color="#F1E5FC"></stop></linearGradient></defs></svg>