<svg width="45" height="50" viewBox="0 0 45 50" fill="none" xmlns="http://www.w3.org/2000/svg">
<path d="M22.1046 50L4.10012 45.0018L0.0878906 0H44.1754L40.1589 44.9948L22.1046 50Z" fill="#264DE4"/>
<path d="M36.7205 42.1297L40.1529 3.67957H22.1318V46.1742L36.7205 42.1297Z" fill="#2965F1"/>
<path d="M9.28613 20.3701L9.78081 25.8893H22.1319V20.3701H9.28613Z" fill="#EBEBEB"/>
<path d="M8.29199 9.19891L8.79372 14.7183H22.1318V9.19891H22.1127H8.29199Z" fill="#EBEBEB"/>
<path d="M22.1318 34.7043L22.1077 34.7107L15.9608 33.0509L15.5678 28.649H12.5809H10.0273L10.8006 37.3151L22.1064 40.4537L22.1318 40.4467V34.7043Z" fill="#EBEBEB"/>
<path d="M34.9418 20.3701L35.9382 9.19891H22.1123V14.7183H29.8895L29.3873 20.3701H22.1123V25.8893H28.9087L28.268 33.0474L22.1123 34.7089V40.451L33.4271 37.3151L33.5102 36.3827L34.8071 21.8522L34.9418 20.3701Z" fill="white"/>
</svg>
