<svg width="45" height="50" viewBox="0 0 45 50" fill="none" xmlns="http://www.w3.org/2000/svg">
<path d="M44.0875 0L40.071 44.9948L22.0167 50L4.01223 45.0018L0 0H44.0875Z" fill="#E44D26"/>
<path d="M22.0439 46.1742L36.6326 42.1297L40.065 3.67957H22.0439V46.1742Z" fill="#F16529"/>
<path d="M14.236 14.7183H22.0439V9.19891H22.0248H8.2041L8.33622 10.6797L9.69275 25.8893H22.0439V20.3701H14.7404L14.236 14.7183Z" fill="#EBEBEB"/>
<path d="M15.48 28.649H12.4931H9.93945L10.7127 37.3151L22.0186 40.4537L22.044 40.4467V34.7043L22.0198 34.7107L15.8729 33.0509L15.48 28.649Z" fill="#EBEBEB"/>
<path d="M22.0244 25.8893H28.8208L28.1802 33.0474L22.0244 34.7089V40.4511L33.3393 37.3152L33.4223 36.3827L34.7192 21.8522L34.8539 20.3701H33.3666H22.0244V25.8893Z" fill="white"/>
<path d="M22.0244 14.7048V14.7183H35.3384H35.3561L35.4668 13.4777L35.7183 10.6797L35.8503 9.19891H22.0244V12.6269V14.7048Z" fill="white"/>
</svg>
