<svg width="68" height="50" viewBox="0 0 68 50" fill="none" xmlns="http://www.w3.org/2000/svg">
<path d="M38.5487 13.6834L36.2387 17.6834L28.3387 4.0001L4.08711 46H20.5071C20.5071 48.2091 22.2979 50 24.5071 50H4.08712C2.65819 50 1.33794 49.2372 0.623596 47.9997C-0.0907462 46.7621 -0.0906737 45.2375 0.623789 44L24.8754 2.00011C25.5899 0.762443 26.9105 0 28.3396 0C29.7687 0 31.0892 0.762443 31.8037 2.00011L38.5487 13.6834Z" fill="#00C58E"/>
<path d="M56.0553 44L40.8587 17.6834L38.5487 13.6834L36.2387 17.6834L21.0437 44C20.3292 45.2375 20.3292 46.7621 21.0435 47.9997C21.7579 49.2372 23.0781 50 24.507 50H52.587C54.0162 50 55.337 49.238 56.0517 48.0004C56.7665 46.7627 56.7666 45.2377 56.052 44H56.0553ZM24.507 46L38.5487 21.6834L52.587 46L24.507 46Z" fill="#2F495E"/>
<path d="M66.9204 48C66.206 49.2374 64.8859 50 63.4571 50H52.5871C54.7963 50 56.5871 48.2092 56.5871 46H63.4488L43.9788 12.2784L40.8588 17.6834L38.5488 13.6834L40.5155 10.2784C41.23 9.04076 42.5505 8.27832 43.9796 8.27832C45.4088 8.27832 46.7293 9.04076 47.4438 10.2784L66.9204 44C67.635 45.2376 67.635 46.7624 66.9204 48Z" fill="#108775"/>
</svg>
