<svg width="67" height="50" viewBox="0 0 67 50" fill="none" xmlns="http://www.w3.org/2000/svg">
<g clip-path="url(#clip0_877_236)">
<path d="M57.492 28.7384C55.1661 28.7506 53.1447 29.3107 51.452 30.1388C50.831 28.9089 50.2099 27.8129 50.1003 27.0092C49.9786 26.0716 49.8324 25.4992 49.9786 24.3789C50.1247 23.2586 50.7823 21.6634 50.7701 21.5416C50.7579 21.4198 50.624 20.8475 49.2845 20.8353C47.9449 20.8232 46.7881 21.0911 46.6542 21.4442C46.5202 21.7973 46.2645 22.601 46.094 23.4291C45.8626 24.6468 43.415 28.9941 42.0146 31.2713C41.564 30.3823 41.1744 29.603 41.0891 28.982C40.9674 28.0443 40.8212 27.472 40.9674 26.3517C41.1135 25.2313 41.7711 23.6361 41.7589 23.5143C41.7467 23.3926 41.6128 22.8202 40.2732 22.8081C38.9337 22.7959 37.7769 23.0638 37.6429 23.4169C37.509 23.7701 37.3629 24.5981 37.0828 25.4018C36.8027 26.2055 33.5514 33.4632 32.699 35.3385C32.2606 36.3005 31.8831 37.0677 31.6152 37.5913C31.6152 37.5913 31.603 37.6278 31.5665 37.6887C31.3351 38.1393 31.2012 38.3828 31.2012 38.3828C31.2012 38.3828 31.2012 38.3828 31.2012 38.395C31.0185 38.7238 30.8237 39.0282 30.7262 39.0282C30.6532 39.0282 30.5192 38.1515 30.7506 36.9581C31.2377 34.4374 32.3945 30.5163 32.3824 30.3823C32.3824 30.3093 32.6015 29.6274 31.6274 29.2742C30.6775 28.9211 30.3366 29.5056 30.2513 29.5056C30.1661 29.5056 30.1052 29.7126 30.1052 29.7126C30.1052 29.7126 31.1646 25.3044 28.0838 25.3044C26.1598 25.3044 23.5051 27.4111 22.19 29.3107C21.3619 29.7613 19.5962 30.7233 17.7087 31.7584C16.9902 32.1602 16.2474 32.5621 15.5533 32.9396C15.5046 32.8909 15.4559 32.83 15.4072 32.7813C11.6809 28.7993 4.78859 25.9863 5.08085 20.6405C5.19044 18.6921 5.86019 13.5777 18.3176 7.36724C28.5709 2.31366 36.7297 3.71405 38.1422 6.81927C40.1637 11.2518 33.7706 19.4837 23.1763 20.677C19.1335 21.1276 17.0146 19.5689 16.4788 18.9844C15.9186 18.3755 15.8334 18.339 15.6264 18.4608C15.2854 18.6434 15.5046 19.1914 15.6264 19.508C15.943 20.3361 17.246 21.7973 19.4501 22.5158C21.3984 23.149 26.1354 23.5022 31.8709 21.2859C38.2883 18.8017 43.3054 11.8972 41.8319 6.11298C40.3585 0.243523 30.6166 -1.69267 21.3984 1.58303C15.9186 3.53139 9.97612 6.60007 5.70189 10.5942C0.623955 15.3434 -0.179747 19.4715 0.14904 21.2007C1.33024 27.338 9.79346 31.3322 13.1788 34.2913C13.0083 34.3887 12.85 34.4739 12.716 34.547C11.0234 35.3872 4.5694 38.7603 2.962 42.3283C1.1354 46.3711 3.25425 49.2693 4.65464 49.659C9.00194 50.8646 13.471 48.697 15.8699 45.1169C18.2689 41.5368 17.9766 36.885 16.8685 34.754C16.8563 34.7296 16.8441 34.7053 16.8198 34.6809C17.2581 34.4252 17.7087 34.1573 18.1471 33.9016C19.0117 33.3901 19.8641 32.9152 20.5947 32.5255C20.1807 33.658 19.8763 35.0097 19.7301 36.9581C19.5475 39.2474 20.4851 42.2187 21.715 43.3877C22.263 43.8991 22.9084 43.9113 23.3224 43.9113C24.7594 43.9113 25.4048 42.7179 26.1232 41.3054C27 39.5762 27.7915 37.567 27.7915 37.567C27.7915 37.567 26.8052 42.998 29.4842 42.998C30.4583 42.998 31.4447 41.7316 31.8831 41.0862C31.8831 41.0984 31.8831 41.0984 31.8831 41.0984C31.8831 41.0984 31.9074 41.0618 31.9562 40.9766C32.0536 40.8183 32.1145 40.7209 32.1145 40.7209C32.1145 40.7209 32.1145 40.7087 32.1145 40.6965C32.5041 40.0146 33.3809 38.4681 34.6839 35.8987C36.3643 32.5864 37.9839 28.4462 37.9839 28.4462C37.9839 28.4462 38.13 29.4569 38.6293 31.1373C38.9216 32.1237 39.5304 33.2075 40.0175 34.2547C39.6278 34.8027 39.3843 35.1071 39.3843 35.1071C39.3843 35.1071 39.3843 35.1071 39.3965 35.1193C39.0799 35.5333 38.7389 35.9839 38.3614 36.4223C37.0341 38.0053 35.451 39.8197 35.2318 40.3434C34.9761 40.9644 35.037 41.415 35.5241 41.7803C35.8772 42.0482 36.5105 42.0847 37.1559 42.0482C38.3492 41.963 39.1895 41.6707 39.6035 41.488C40.2489 41.2567 41.0039 40.9035 41.7102 40.3799C43.0131 39.4179 43.8047 38.0419 43.7316 36.2274C43.6951 35.2289 43.3663 34.2304 42.9644 33.2927C43.0862 33.1222 43.1958 32.9518 43.3176 32.7813C45.3755 29.7735 46.9708 26.4734 46.9708 26.4734C46.9708 26.4734 47.1169 27.4841 47.6162 29.1646C47.8597 30.017 48.359 30.9425 48.7974 31.8436C46.8612 33.4145 45.6678 35.2411 45.2416 36.4345C44.4744 38.6507 45.0711 39.6493 46.2036 39.8806C46.715 39.9902 47.4457 39.7467 47.9815 39.5153C48.6634 39.2961 49.4671 38.9186 50.2343 38.3585C51.5373 37.3965 52.7915 36.057 52.7184 34.2425C52.6819 33.4145 52.4627 32.5986 52.1583 31.8071C53.8022 31.1252 55.9211 30.7477 58.6244 31.0643C64.4208 31.7462 65.5655 35.3629 65.3463 36.885C65.1271 38.4072 63.9094 39.2352 63.5075 39.491C63.1057 39.7467 62.9717 39.8319 63.0083 40.0146C63.057 40.2825 63.2518 40.2703 63.5928 40.2216C64.0677 40.1364 66.6371 38.9917 66.7467 36.1909C66.9294 32.6108 63.5197 28.7019 57.492 28.7384ZM12.7769 43.8139C10.8529 45.9084 8.17388 46.6999 7.01704 46.0302C5.77495 45.3117 6.26205 42.2187 8.62444 40.0024C10.0614 38.6507 11.9123 37.3965 13.1422 36.6293C13.4223 36.4588 13.8363 36.2153 14.3356 35.9108C14.4208 35.8621 14.4695 35.8378 14.4695 35.8378C14.567 35.7769 14.6644 35.716 14.7618 35.6551C15.6264 38.8212 14.7983 41.6098 12.7769 43.8139ZM26.7808 34.2913C26.111 35.923 24.7107 40.0998 23.8582 39.8685C23.1276 39.6736 22.677 36.5075 23.7121 33.378C24.2357 31.8071 25.3439 29.9318 25.9893 29.2011C27.0365 28.0321 28.1934 27.6425 28.4734 28.1174C28.8266 28.7384 27.1948 33.2684 26.7808 34.2913ZM38.3371 39.8198C38.057 39.9659 37.7891 40.0633 37.6673 39.9902C37.5821 39.9415 37.7891 39.7467 37.7891 39.7467C37.7891 39.7467 39.2382 38.188 39.8105 37.4817C40.1393 37.0677 40.529 36.5806 40.943 36.0326C40.943 36.0813 40.943 36.1422 40.943 36.1909C40.943 38.054 39.1408 39.3083 38.3371 39.8198ZM47.2508 37.7861C47.0438 37.64 47.0804 37.1529 47.7745 35.6308C48.0424 35.0341 48.6756 34.0355 49.7594 33.0735C49.8811 33.4632 49.9664 33.8407 49.9542 34.1938C49.942 36.5441 48.2616 37.4208 47.2508 37.7861Z" fill="#CD6799"/>
</g>
<defs>
<clipPath id="clip0_877_236">
<rect width="66.7073" height="50" fill="white" transform="translate(0.0878906)"/>
</clipPath>
</defs>
</svg>
