<svg width="51" height="50" viewBox="0 0 51 50" fill="none" xmlns="http://www.w3.org/2000/svg">
<g clip-path="url(#clip0_877_205)">
<path d="M45.2051 0H4.9707C2.274 0 0.0878906 2.18611 0.0878906 4.88281V45.1172C0.0878906 47.8139 2.274 50 4.9707 50H45.2051C47.9018 50 50.0879 47.8139 50.0879 45.1172V4.88281C50.0879 2.18611 47.9018 0 45.2051 0Z" fill="#3178C6"/>
<path d="M45.2051 0H4.9707C2.274 0 0.0878906 2.18611 0.0878906 4.88281V45.1172C0.0878906 47.8139 2.274 50 4.9707 50H45.2051C47.9018 50 50.0879 47.8139 50.0879 45.1172V4.88281C50.0879 2.18611 47.9018 0 45.2051 0Z" fill="#3178C6"/>
<path fill-rule="evenodd" clip-rule="evenodd" d="M31.039 39.7875V44.6763C31.8337 45.0837 32.7736 45.3892 33.8588 45.5929C34.9439 45.7966 36.0876 45.8984 37.2899 45.8984C38.4617 45.8984 39.5748 45.7864 40.6294 45.5623C41.684 45.3383 42.6087 44.969 43.4034 44.4547C44.1981 43.9404 44.8273 43.2682 45.2909 42.4381C45.7545 41.608 45.9863 40.5819 45.9863 39.3598C45.9863 38.4736 45.8539 37.6971 45.589 37.03C45.324 36.3629 44.942 35.7696 44.4427 35.2502C43.9435 34.7308 43.3448 34.2647 42.6469 33.8522C41.9489 33.4397 41.1618 33.0502 40.2855 32.6836C39.6437 32.4187 39.068 32.1616 38.5585 31.9121C38.049 31.6625 37.616 31.4079 37.2594 31.1482C36.9027 30.8885 36.6276 30.6135 36.4341 30.3232C36.2405 30.0329 36.1437 29.7045 36.1437 29.3378C36.1437 29.0018 36.2303 28.6987 36.4035 28.4288C36.5768 28.1589 36.8213 27.9272 37.1371 27.7337C37.453 27.5402 37.8401 27.3899 38.2986 27.283C38.7572 27.1761 39.2666 27.1227 39.827 27.1227C40.2346 27.1227 40.665 27.1532 41.1185 27.2143C41.5719 27.2754 42.0278 27.3696 42.4864 27.4969C42.9449 27.6242 43.3906 27.7847 43.8237 27.9781C44.2567 28.1717 44.6566 28.3957 45.0234 28.6504V24.0824C44.2797 23.7973 43.4671 23.5859 42.5857 23.4484C41.7044 23.3109 40.6931 23.2422 39.552 23.2422C38.3903 23.2422 37.2899 23.367 36.2507 23.6165C35.2114 23.866 34.297 24.2556 33.5072 24.7852C32.7176 25.3148 32.0936 25.9895 31.6351 26.8095C31.1766 27.6293 30.9473 28.6096 30.9473 29.7503C30.9473 31.2067 31.3676 32.4493 32.2082 33.478C33.0487 34.5066 34.3249 35.3774 36.0367 36.0904C36.7092 36.3654 37.3358 36.6353 37.9166 36.9001C38.4974 37.1649 38.9992 37.4399 39.422 37.7251C39.8448 38.0103 40.1785 38.3209 40.4231 38.657C40.6677 38.9931 40.7899 39.375 40.7899 39.8028C40.7899 40.1186 40.7135 40.4113 40.5606 40.6812C40.4078 40.9512 40.176 41.1854 39.8652 41.384C39.5545 41.5826 39.1673 41.7379 38.7037 41.8499C38.24 41.962 37.6976 42.018 37.076 42.018C36.0163 42.018 34.9669 41.8321 33.9275 41.4604C32.8883 41.0887 31.9254 40.5311 31.039 39.7875ZM22.8203 27.7424H29.0918V23.7305H11.6113V27.7424H17.8521V45.6055H22.8203V27.7424Z" fill="white"/>
</g>
<defs>
<clipPath id="clip0_877_205">
<rect width="50" height="50" fill="white" transform="translate(0.0878906)"/>
</clipPath>
</defs>
</svg>
